<svg xmlns="http://www.w3.org/2000/svg" xmlns:xlink="http://www.w3.org/1999/xlink" width="200" height="100" viewBox="0 0 200 100">
  <defs>
    <polygon id="a" points="0 .05 41.628 .05 41.628 41.677 0 41.677"/>
    <polygon id="c" points=".75 .375 1.125 .375 1.125 .75 .75 .75"/>
    <polygon id="e" points=".344 .588 7.481 .588 7.481 12 .344 12"/>
  </defs>
  <g fill="none" fill-rule="evenodd">
    <rect width="200" height="100" fill="#FAFAFA"/>
    <g transform="translate(12 25)">
      <path fill="#353535" d="M59.2512 13.1328C62.46195 13.1328 64.78245 14.1498 66.94395 16.0893 67.23045 16.34355 67.23045 16.72455 66.97545 16.9788L65.0367 18.98205C64.81395 19.2363 64.49595 19.2363 64.2417 18.98205 62.9067 17.8053 61.12695 17.1063 59.34645 17.1063 55.2777 17.1063 52.2582 20.50755 52.2582 24.51255 52.2582 28.48605 55.3092 31.8558 59.3787 31.8558 61.28595 31.8558 62.9067 31.12455 64.2417 30.0438 64.49595 29.82105 64.8462 29.85255 65.0367 30.0438L67.0077 32.0778C67.26195 32.30055 67.1982 32.71455 66.97545 32.93655 64.81395 35.03505 62.07945 36.0198 59.2512 36.0198 52.89345 36.0198 47.77545 30.96555 47.77545 24.6078 47.77545 18.2508 52.89345 13.1328 59.2512 13.1328M83.6028 28.1046L80.4243 21.1116 80.32905 21.1116 77.2128 28.1046 83.6028 28.1046zM69.8703 34.8756L79.75605 13.4826C79.8513 13.2921 80.0103 13.1331 80.2968 13.1331L80.6148 13.1331C80.93205 13.1331 81.05955 13.2921 81.1548 13.4826L90.9453 34.8756C91.13655 35.28885 90.8823 35.7021 90.4053 35.7021L87.64005 35.7021C87.16305 35.7021 86.9403 35.5116 86.71755 35.06685L85.16055 31.63335 75.6558 31.63335 74.09805 35.06685C73.97055 35.3841 73.6848 35.7021 73.1763 35.7021L70.4103 35.7021C69.9333 35.7021 69.6798 35.28885 69.8703 34.8756L69.8703 34.8756zM98.036625 13.6092C98.068125 13.35495 98.258625 13.13295 98.608875 13.13295L99.116625 13.13295C99.371625 13.13295 99.562125 13.2597 99.657375 13.4502L106.650375 28.4547 106.746375 28.4547 113.739375 13.4502C113.834625 13.2597 113.993625 13.13295 114.279375 13.13295L114.788625 13.13295C115.138875 13.13295 115.329375 13.35495 115.360875 13.6092L119.111625 34.9707C119.207625 35.4162 118.953375 35.70195 118.539375 35.70195L115.646625 35.70195C115.360875 35.70195 115.106625 35.4477 115.042875 35.22495L113.167875 23.1777 113.071875 23.1777 107.509125 35.67045C107.445375 35.86095 107.254875 36.01995 106.968375 36.01995L106.396125 36.01995C106.110375 36.01995 105.952125 35.86095 105.856125 35.67045L100.229625 23.1777 100.134375 23.1777 98.290875 35.22495C98.258625 35.4477 98.004375 35.70195 97.717875 35.70195L94.857375 35.70195C94.444125 35.70195 94.189875 35.4162 94.253625 34.9707L98.036625 13.6092zM132.365925 31.951275C133.955175 31.951275 135.226425 30.711525 135.226425 29.059275 135.226425 27.468525 133.637175 26.292525 131.984925 26.292525L128.519925 26.292525 128.519925 31.951275 132.365925 31.951275zM131.921175 22.796775C133.541925 22.796775 134.654925 21.524775 134.654925 19.935525 134.654925 18.345525 133.541925 17.233275 131.921175 17.233275L128.519925 17.233275 128.519925 22.796775 131.921175 22.796775zM124.418925 14.054775C124.418925 13.736775 124.673175 13.450275 125.022675 13.450275L132.302175 13.450275C136.085175 13.450275 139.009425 15.993525 139.009425 19.331025 139.009425 21.779025 137.006925 23.685525 135.512925 24.386025 137.197425 24.926025 139.645425 26.642775 139.645425 29.567025 139.645425 33.127275 136.594425 35.702025 132.716175 35.702025L125.022675 35.702025C124.673175 35.702025 124.418925 35.416275 124.418925 35.098275L124.418925 14.054775zM145.171575 14.054925C145.171575 13.736925 145.426575 13.450425 145.776075 13.450425L148.700325 13.450425C149.018325 13.450425 149.304825 13.736925 149.304825 14.054925L149.304825 31.887675 157.410075 31.887675C157.759575 31.887675 158.014575 32.173425 158.014575 32.492175L158.014575 35.098425C158.014575 35.416425 157.759575 35.702175 157.410075 35.702175L145.776075 35.702175C145.426575 35.702175 145.171575 35.416425 145.171575 35.098425L145.171575 14.054925zM164.05785 24.98955L156.8106 14.3718C156.55635 13.95855 156.8106 13.45005 157.3191 13.45005L160.56135 13.45005C160.8156 13.45005 160.9746 13.60905 161.06985 13.73655L166.15635 21.04755 171.2421 13.73655C171.33735 13.60905 171.49635 13.45005 171.7506 13.45005L175.0251 13.45005C175.5336 13.45005 175.78785 13.95855 175.5336 14.3718L168.19035 24.9573 168.19035 35.0988C168.19035 35.41605 167.9046 35.7018 167.5866 35.7018L164.66235 35.7018C164.31285 35.7018 164.05785 35.41605 164.05785 35.0988L164.05785 24.98955z"/>
      <g transform="translate(.75 1.817)">
        <mask id="b" fill="#fff">
          <use xlink:href="#a"/>
        </mask>
        <path fill="#FFC929" d="M41.6277,20.86335 C41.6277,32.3586 32.30895,41.67735 20.8137,41.67735 C9.31845,41.67735 -0.0003,32.3586 -0.0003,20.86335 C-0.0003,9.3681 9.31845,0.0501 20.8137,0.0501 C32.30895,0.0501 41.6277,9.3681 41.6277,20.86335" mask="url(#b)"/>
      </g>
      <g transform="translate(0 49.067)">
        <mask id="d" fill="#fff">
          <use xlink:href="#c"/>
        </mask>
        <path fill="#EF502E" mask="url(#d)"/>
      </g>
      <g transform="translate(16.5 37.817)">
        <mask id="f" fill="#fff">
          <use xlink:href="#e"/>
        </mask>
        <path fill="#353535" d="M7.480725,4.81965 L7.480725,8.72115 C7.480725,9.1059 7.398225,9.4374 7.196475,9.73365 C6.788475,10.34265 6.391725,10.9584 5.995725,11.58015 C5.912475,11.70465 5.817975,11.8104 5.711475,11.88165 C5.604975,11.9589 5.480475,12.00015 5.338725,12.00015 L5.314725,12.00015 C3.716475,11.9469 2.219475,11.9049 0.621975,11.8344 C0.521475,11.8344 0.343725,11.79915 0.343725,11.6034 C0.343725,11.43765 0.586725,11.35515 0.734475,11.2899 C0.734475,11.2899 4.194225,9.78315 5.945475,9.04365 C6.117225,8.9724 6.223725,8.8959 6.288975,8.78265 C6.360225,8.6709 6.395475,8.51115 6.395475,8.28615 C6.395475,8.26815 6.401475,2.3484 6.401475,0.78015 C6.750225,0.7389 7.131225,0.6594 7.468725,0.58815 C7.474725,1.5354 7.480725,3.2334 7.480725,4.81965" mask="url(#f)"/>
      </g>
      <path fill="#353535" d="M33.98775,47.242725 L33.98775,47.248725 C33.98775,47.283975 33.966,47.409225 33.86475,47.409225 C33.82425,47.409225 28.5375,47.431725 26.02275,47.437725 C26.02275,47.437725 25.7265,47.431725 25.626,47.402475 C25.5195,47.379225 25.437,47.319975 25.389,47.225475 C25.35375,47.165475 25.33575,47.094975 25.32375,47.011725 C25.3065,46.905225 25.3065,46.768725 25.3065,46.597725 C25.3065,46.562475 25.32375,40.233225 25.32975,38.055975 C25.656,37.955475 26.04675,37.794975 26.36025,37.664475 C26.36625,39.653475 26.36025,45.194475 26.36025,45.194475 C26.36025,45.258975 26.37225,45.306975 26.3835,45.342225 C26.3955,45.378225 26.40825,45.389475 26.4255,45.407475 C26.45475,45.437475 26.52,45.448725 26.6025,45.460725 C28.38975,45.797475 33,46.727475 33.55575,46.833975 C33.615,46.845975 33.67425,46.857975 33.7395,46.887225 C33.79875,46.916475 33.858,46.958475 33.90525,47.017725 C33.9465,47.076975 33.98775,47.160225 33.98775,47.242725"/>
      <path fill="#EF502E" d="M32.067375,34.70445 C30.695625,36.33195 28.805625,37.62345 26.633625,38.4702 C26.277375,38.6187 25.906875,38.7462 25.537125,38.8602 C25.033125,39.0147 24.515625,39.1497 23.990625,39.25695 C23.607375,39.33795 23.217375,39.40545 22.820625,39.45195 C19.095375,39.9702 14.992875,39.28395 11.382375,37.00395 C11.227125,36.91695 11.092875,36.82245 10.965375,36.73545 C13.715625,38.5107 17.239125,38.9682 21.038625,37.86495 C25.470375,36.5667 28.597125,34.1802 29.956125,30.1182 C31.542375,25.40445 29.256375,21.94095 26.182875,20.2467 C23.680875,18.8817 19.558875,19.14345 17.017875,22.2372 C16.741125,19.1037 14.515875,14.83995 14.804625,11.6187 C15.235875,6.6762 20.372625,4.30245 24.730875,5.14995 C25.591125,5.3112 26.467875,5.6997 27.153375,6.21045 C27.180375,6.2442 27.147375,6.2532 27.154125,6.28695 C26.084625,7.1682 25.234875,7.9677 24.958875,8.6802 C24.622875,9.57495 25.396125,10.13295 25.557375,11.67945 C25.684875,12.90345 25.489875,13.30695 25.375875,13.7367 C25.282125,14.0937 26.989875,15.07545 28.799625,14.76645 C29.524875,14.6382 30.614625,14.3427 31.448625,13.42095 C31.966125,14.8602 32.363625,16.20495 32.712375,17.16645 C35.073375,23.76345 36.303375,29.6742 32.067375,34.70445"/>
      <path fill="#FFF" d="M23.8533,13.20345 C23.83005,13.24845 23.7858,13.27095 23.73705,13.2582 C23.09055,13.0917 22.42455,13.03995 21.6633,13.1757 C20.95905,13.30245 20.16555,13.69245 19.6308,14.1252 C19.59855,14.15145 19.5513,14.1357 19.52805,14.10045 C19.2048,13.6002 19.0248,12.96945 18.95355,12.2922 C18.7758,10.6062 19.91355,9.3492 21.2703,9.2487 C22.5423,9.1542 23.71755,9.96195 23.95905,11.73345 C24.0063,12.0822 24.01155,12.8922 23.8533,13.20345"/>
      <path fill="#353535" d="M20.386725 12.6417C20.982225 12.0882 21.929475 11.84145 22.851225 12.09795 22.846725 11.9277 22.789725 11.6817 22.718475 11.49795 22.533975 11.01945 22.053225 10.57395 21.264225 10.7487 20.396475 10.93995 20.089725 11.97645 20.386725 12.6417M43.84545 5.958L32.6007 11.78925C32.47545 11.841 32.34195 11.9145 32.29845 12.0405 32.07645 12.6165 31.78095 13.06725 31.4487 13.422 30.6132 14.346 29.5272 14.6415 28.79595 14.76675 26.99295 15.07725 25.2792 14.09475 25.3752 13.74 25.49295 13.3035 25.6857 12.90525 25.5597 11.67825 25.39695 10.134 24.62145 9.573 24.9612 8.679 25.23495 7.9695 26.01945 7.1115 27.10395 6.24825 28.51695 5.124 31.9242 2.6265 34.4607 1.1145 37.21395-.525 39.95595-.63525 42.83295 2.7 43.6527 3.65325 44.04495 4.5615 44.22945 5.13075 44.3397 5.463 44.1702 5.82525 43.84545 5.958"/>
      <path fill="#CC2525" d="M29.9595,30.119475 C28.5945,34.182975 25.4685,36.572475 21.039,37.863975 C14.89875,39.654225 9.4575,37.341225 6.88125,31.986975 C6.88125,31.986975 12.20175,30.116475 16.30725,23.251725 C18.7245,19.209225 23.43525,18.741975 26.18025,20.250975 C29.253,21.939975 31.54275,25.404975 29.9595,30.119475"/>
    </g>
  </g>
</svg>
