<svg xmlns="http://www.w3.org/2000/svg" width="200" height="100" viewBox="0 0 200 100">
  <g fill="none" fill-rule="evenodd">
    <rect width="200" height="100" fill="#FAFAFA"/>
    <path fill="#171819" d="M31.669948,33 C33.9007476,33 35.9866772,34.0724176 37.251897,35.8712696 L47.2007351,49.9964205 L37.255857,64.1287251 C35.9906372,65.9275771 33.9007476,67.0019457 31.669948,67 L17.1007807,67 C15.9401709,67 15.0006611,66.080408 15.0006611,64.9445819 C15.0006611,64.5290119 15.1287011,64.1212461 15.369601,63.7791651 L25.0415692,50 L15.369601,36.2231058 C14.7122412,35.2859599 14.9551211,34.0047818 15.9124509,33.3612662 C16.2619209,33.1255164 16.6764008,33 17.1007807,33 L31.669948,33 Z M31.669948,35.6976232 L18.3442205,35.6976232 L26.7156589,47.6197376 L29.8321784,43.1752853 C30.6614682,41.9945854 32.3094879,41.6951019 33.5156377,42.5067315 C34.2337175,42.9899372 34.6640375,43.7898606 34.6640375,44.6437625 L34.6640375,55.346477 C34.6640375,56.7785349 33.4783477,57.9400497 32.015458,57.9400497 C31.1429381,57.9400497 30.3255283,57.5183015 29.8321784,56.8152794 L26.7156589,52.3711523 L18.3422405,64.2952132 L31.669948,64.2952132 C32.9925878,64.2952132 34.2320675,63.6575507 34.9818274,62.5909862 L43.8485958,49.9925184 L34.9818274,37.3940506 C34.2300875,36.329112 32.9925878,35.6956767 31.669948,35.6976232 Z M81.9843787,41.2840844 C87.1145578,41.2840844 90.985457,45.0326684 90.985457,50.0003225 C90.985457,52.412124 90.0832372,54.6128888 88.4332375,56.2143613 C86.7829078,57.8161591 84.4933682,58.6996517 81.9843787,58.6996517 C76.8271397,58.6996517 72.9361104,54.976106 72.9361104,50.0042246 C72.9361104,45.0326684 76.8271397,41.2840844 81.9843787,41.2840844 Z M152.076696,41.4944707 L159.457474,58.4983702 L156.034385,58.4983702 L154.620995,55.076259 L147.171577,55.076259 L145.735087,58.4983702 L142.336088,58.4983702 L149.775606,41.4944707 L152.076696,41.4944707 Z M60.4555127,41.4944707 C65.8678417,41.4944707 69.503781,44.8931695 69.503781,49.9847143 C69.503781,55.0759338 65.8678417,58.4983702 60.4555127,58.4983702 L60.4555127,58.4983702 L54.0934439,58.4983702 L54.0934439,51.8707124 L55.3979336,50.0061756 L54.0934439,48.1432647 L54.0934439,41.4944707 Z M174.451022,41.4902435 L174.451022,55.6420584 L183,55.6420584 L183,58.4944681 L171.263552,58.4944681 L171.263552,41.4902435 L174.451022,41.4902435 Z M166.089813,41.4902435 L166.089813,58.4944681 L162.904324,58.4944681 L162.904324,41.4902435 L166.089813,41.4902435 Z M142.336418,41.4902435 L142.336418,44.3654152 L136.777569,44.3654152 L136.777569,58.4944681 L133.567989,58.4944681 L133.567989,44.3654152 L128.0098,44.3654152 L128.0098,41.4902435 L142.336418,41.4902435 Z M124.562621,41.4902435 L124.562621,44.3634642 L115.911672,44.3634642 L115.911672,48.4525033 L123.447551,48.4525033 L123.447551,51.3253988 L115.911672,51.3253988 L115.911672,55.6420584 L124.531601,55.6420584 L124.531601,58.4944681 L112.723543,58.4944681 L112.723543,41.4902435 L124.562621,41.4902435 Z M96.2697461,41.4902435 L100.274955,51.4398594 L101.091705,53.6871238 L101.867865,51.4785549 L105.805424,41.4902435 L109.275374,41.4902435 L102.058935,58.4944681 L99.9251554,58.4944681 L92.7087167,41.4902435 L96.2697461,41.4902435 Z M81.9843787,44.2190878 C78.6701893,44.2190878 76.1694498,46.7118571 76.1694498,49.9964205 C76.1694498,53.3313855 78.6427993,55.7509911 81.9843787,55.7509911 C85.3262881,55.7509911 87.7504676,53.3313855 87.7504676,49.9964205 C87.7504676,46.7118571 85.2985681,44.2190878 81.9843787,44.2190878 Z M60.4373627,44.3696425 L57.2795933,44.3696425 L57.2795933,55.6231985 L60.4373627,55.6231985 C63.984862,55.6231985 66.2760516,53.4341399 66.2760516,50.0078015 C66.2760516,46.5821134 63.990802,44.3696425 60.4373627,44.3696425 L60.4373627,44.3696425 Z M31.902928,44.9858436 L28.3834786,49.9964205 L31.902928,55.008298 L31.902928,44.9858436 Z M150.892326,46.1704455 L148.310736,52.2667721 L153.458735,52.2667721 L150.892326,46.1704455 Z"/>
  </g>
</svg>
