<svg xmlns="http://www.w3.org/2000/svg" width="200" height="100" viewBox="0 0 200 100">
  <g fill="none" fill-rule="evenodd">
    <rect width="200" height="100" fill="#FAFAFA"/>
    <g transform="translate(19 26)">
      <path fill="#2E3842" d="M16.5599994,17.692531 C15.8834665,18.082391 15.1537934,18.3717103 14.3939235,18.5513917 C13.6472044,18.7223049 12.8832304,18.8063225 12.1172147,18.8017714 C11.0408697,18.8072182 9.97314792,18.6096749 8.96999966,18.219493 C7.11699357,17.5158755 5.64031821,16.0729527 4.89405045,14.2367083 C4.50379008,13.273189 4.30597557,12.2425754 4.31177199,11.2030376 C4.3047005,10.1501683 4.50246472,9.10597324 4.89405045,8.12860729 C5.25996538,7.22541541 5.81143965,6.40911447 6.51278456,5.73253143 C7.22272397,5.0470358 8.06605862,4.5148728 8.99037941,4.16911377 C10.0032059,3.7947877 11.0752973,3.60640733 12.1550628,3.61303784 C14.4008056,3.56701194 16.5624532,4.46717016 18.1117715,6.09354407 L20.63886,3.62468341 C19.6158249,2.46854055 18.3339005,1.57069463 16.8977209,1.00443034 C13.8052746,-0.162755817 10.3971767,-0.184443713 7.29012631,0.943291104 C5.91574874,1.46157833 4.65724572,2.24616394 3.58683531,3.25202519 C2.54411733,4.24316234 1.71660463,5.43834835 1.15582274,6.7631643 C-0.0126544059,9.61985823 -0.0126544059,12.8211536 1.15582274,15.6778475 C1.71463406,16.9990128 2.5391324,18.1911661 3.57810113,19.1802524 C4.64013128,20.1854744 5.89090779,20.9701783 7.25810099,21.4889865 C8.74269003,22.0452077 10.3164344,22.325423 11.9017717,22.3158219 C12.9256692,22.3162963 13.9469737,22.2128978 14.9499994,22.0072144 C15.9431201,21.8085789 16.9115663,21.5020345 17.8381006,21.0930372 C18.7402772,20.6990522 19.5861493,20.1870255 20.3535435,19.570379 L20.3535435,10.9672148 L16.5687336,10.9672148 L16.5687336,17.692531 L16.5599994,17.692531 Z M46.54734,0.416329098 L46.54734,15.0402526 L34.6397455,0.416329098 L31.3265811,0.416329098 L31.3265811,22.0101258 L35.3064544,22.0101258 L35.3064544,7.38911365 L47.2256944,22.0101258 L50.5155677,22.0101258 L50.5155677,0.416329098 L46.54734,0.416329098 Z M78.1912629,22.0101258 L82.3865792,22.0101258 L72.6392378,0.416329098 L68.6768328,0.416329098 L58.9615168,22.0101258 L63.0956938,22.0101258 L65.2239216,17.0141766 L76.0193642,17.0141766 L78.1796173,22.0101258 L78.1912629,22.0101258 Z M66.592276,13.8582273 L70.6332885,4.4194935 L74.7092377,13.8582273 L66.592276,13.8582273 Z M109.27911,22.0101258 L104.288983,14.9150627 C105.663868,14.4115404 106.850217,13.496618 107.686578,12.2948097 C108.502481,11.0470645 108.920724,9.58118341 108.886072,8.09075919 C108.920833,6.64291484 108.537752,5.21570867 107.782654,3.97987327 C107.006809,2.8145271 105.905185,1.90325735 104.615059,1.3596202 C103.063795,0.70669363 101.391989,0.389199377 99.7093633,0.427974667 L90.8208826,0.427974667 L90.8208826,22.0217713 L94.8298698,22.0217713 L94.8298698,15.718607 L99.7035405,15.718607 C99.8432874,15.718607 99.9946798,15.718607 100.11987,15.718607 C100.259011,15.7172214 100.397982,15.708475 100.536199,15.6924045 L104.946958,22.0159485 L109.27911,22.0101258 Z M104.871262,8.09949337 C104.896559,8.91744575 104.687455,9.72557822 104.268604,10.4286072 C103.840204,11.0947615 103.215606,11.6115295 102.481009,11.9075945 C101.542949,12.2736233 100.541289,12.448815 99.5346798,12.4229109 L94.8298698,12.4229109 L94.8298698,3.81101251 L99.5201228,3.81101251 C100.527315,3.7844243 101.52949,3.9616865 102.466452,4.33215174 C103.200188,4.61798542 103.825522,5.12721473 104.254047,5.78784788 C104.676275,6.48366193 104.890453,7.28581945 104.871262,8.09949337 L104.871262,8.09949337 Z" transform="translate(51.532 13.101)"/>
      <polygon fill="#0DEA9D" points="37.877 12.225 21.058 2.513 2.178 13.416 2.178 35.216 21.058 46.116 39.938 35.216 39.938 26.622 21.058 15.722 13.617 20.019 13.617 28.61 21.058 32.907 28.497 28.61 28.497 24.109 30.674 25.367 30.674 29.868 21.058 35.42 11.439 29.868 11.439 18.761 21.058 13.209 42.113 25.367 42.113 36.471 21.058 48.629 0 36.471 0 12.158 21.058 0 42.233 12.225 35.306 16.225 33.129 14.967"/>
    </g>
  </g>
</svg>
