<svg xmlns="http://www.w3.org/2000/svg" width="200" height="100" viewBox="0 0 200 100">
  <g fill="none" fill-rule="evenodd">
    <rect width="200" height="100" fill="#FAFAFA"/>
    <g transform="translate(10 26)">
      <path fill="#033846" d="M57.3400446,39.9555858 C59.4996448,39.9837858 61.229645,41.719786 61.197445,43.8267861 C61.164245,45.9937863 59.4042448,47.6315865 57.1408446,47.6017865 C54.9864444,47.5735865 53.3296443,45.8489863 53.3706443,43.6771861 C53.4112443,41.5333859 55.1246444,39.9267858 57.3400446,39.9555858 Z M23.0418016,11.3595632 C22.9682016,12.6551634 22.9888016,13.9593635 23.0368016,15.2573636 C23.0606016,15.9023636 22.8848015,16.1181637 22.2140015,16.1059637 C19.9818013,16.0657637 17.7474011,16.1255637 15.5158009,16.0713637 C14.7238008,16.0521637 14.5142008,16.2813637 14.5180008,17.0685637 C14.5494008,23.4673643 14.5154008,29.8665649 14.5586008,36.2653655 C14.5646008,37.1619655 14.3300008,37.4085656 13.4526007,37.3573656 C12.1044006,37.3637594 10.7522005,37.3637594 9.45540035,37.3553656 C8.64040027,37.3501656 8.38680025,37.1803655 8.39300025,36.3281655 C8.43320025,30.929165 8.41500025,25.5299645 8.41280025,20.130764 C8.41160025,17.5629638 6.95400012,16.0981637 4.39879989,16.0909637 L2.64839974,16.0768137 C2.06499968,16.0741137 1.48189963,16.0784637 0.899799581,16.1049637 C0.22279952,16.1359637 -0.0300005023,15.9699637 0.00279950062,15.2417636 C0.0643995061,13.8779635 0.0575995055,12.5081633 0.00499950082,11.1437632 C-0.0214005015,10.4569632 0.161599515,10.2409631 0.876599579,10.2483631 C4.4421999,10.2857631 8.00860022,10.2655631 11.5748005,10.2653631 C15.0410008,10.2653631 18.5078012,10.3029631 21.9728015,10.2401631 C22.8960015,10.2233631 23.0904016,10.5089632 23.0418016,11.3595632 Z M54.9891244,10.2485831 C56.5191246,10.3045831 58.0531247,10.2861831 59.5845248,10.2545831 C60.1605249,10.2427831 60.3973249,10.3595831 60.3955366,11.0159832 C60.3725249,19.541984 60.3725249,28.0681847 60.3955366,36.5941855 C60.3975249,37.2595856 60.1427249,37.3581856 59.5769248,37.3471856 C58.0453247,37.3175856 56.5113246,37.2961856 54.9815244,37.3543856 C54.2385243,37.3825856 54.1177243,37.0991855 54.1221243,36.4365855 C54.1493243,32.2069851 54.1359243,27.9771847 54.1359243,23.7473843 C54.1359243,19.550984 54.1503243,15.3543836 54.1213243,11.1581832 C54.1165243,10.4841832 54.2583244,10.2217831 54.9891244,10.2485831 Z M44.3694635,10.2480631 C45.8996636,10.3062631 47.4340637,10.2844631 48.9658639,10.2558631 C49.5296639,10.2452631 49.788264,10.3408631 49.7864733,11.0076632 C49.7632639,19.535664 49.7664639,28.0640647 49.781864,36.5920655 C49.782864,37.1406655 49.6584639,37.3610656 49.0684639,37.3484656 C47.4702637,37.3140656 45.8696636,37.3060656 44.2720635,37.3518656 C43.6194634,37.3706656 43.5050634,37.1210655 43.5098634,36.5376655 C43.5354634,33.5398652 43.4932634,30.540865 43.5410634,27.5434647 C43.5536634,26.7484646 43.3252634,26.5308646 42.5418633,26.5522646 C40.5444631,26.6068646 38.5446629,26.5608646 36.5460628,26.5726646 C34.0020625,26.5874646 32.6596624,27.9356647 32.6590624,30.4536649 C32.6584624,32.4858651 32.6384624,34.5182653 32.6718624,36.5496655 C32.6814624,37.1448655 32.5428624,37.3714656 31.9026624,37.3516656 C30.4050622,37.3056656 28.9034621,37.2980656 27.406462,37.3538656 C26.6780619,37.3810656 26.5316619,37.1208655 26.5363493,36.4448655 C26.5654619,32.2142651 26.5510619,27.9832647 26.5510619,23.7526643 C26.5510619,19.555264 26.5652619,15.3574636 26.5366619,11.1602632 C26.5318619,10.4880632 26.6710619,10.2208631 27.403662,10.2484631 C28.9006621,10.3050631 30.4022622,10.2964631 31.8998624,10.2508631 C32.5358624,10.2316631 32.6774624,10.4514632 32.6718624,11.0496632 C32.6436624,14.0144635 32.6780624,16.9796637 32.6440624,19.944064 C32.6364624,20.6172641 32.7832624,20.8722641 33.5128625,20.8568641 C35.7438627,20.8102641 37.9766629,20.8556641 40.2084631,20.8356641 C42.1280633,20.8184641 43.5078634,19.405064 43.5190634,17.4634638 C43.5314634,15.3648636 43.5456634,13.2654634 43.5076634,11.1674632 C43.4956634,10.5046632 43.6252634,10.2194631 44.3694635,10.2480631 Z M93.8125279,10.2484831 C95.343928,10.3026831 96.8793282,10.3000831 98.4109283,10.2496831 C99.1029284,10.2270831 99.2271284,10.4860832 99.2169284,11.1130832 C99.1805284,13.3454834 99.2065284,15.5788836 99.2003284,17.8118838 C99.1985284,18.4866839 99.1269284,19.2144839 99.9083284,19.518484 C100.722929,19.835284 101.220929,19.2430839 101.684129,18.7214839 C103.984729,16.1304837 106.252729,13.5102834 108.582929,10.9466832 C108.908729,10.5882832 109.510729,10.3118831 109.994729,10.2956831 C112.09213,10.2250831 114.19333,10.2602831 116.29293,10.2720831 C116.53653,10.2732831 116.77993,10.3666831 117.02333,10.4174832 C116.88993,10.6016832 116.77253,10.8006832 116.62033,10.9680832 C113.48173,14.4172835 110.354329,17.8770838 107.181929,21.2952841 C106.673729,21.8428842 106.659729,22.1808842 107.082329,22.7780843 C110.295329,27.3170847 113.47233,31.8818851 116.65633,36.4414855 C116.82313,36.6806855 116.95253,36.9458855 117.09913,37.1986855 C116.78593,37.2448856 116.47273,37.3288856 116.15913,37.3308856 C114.22613,37.3432856 112.29173,37.3732856 110.360929,37.3078856 C109.951729,37.2940856 109.411929,37.0108855 109.174929,36.6786855 C106.988529,33.6162852 104.843329,30.524285 102.718529,27.4188847 C102.347929,26.8772846 102.195129,26.8420846 101.661729,27.3080847 C99.7631284,28.9670848 99.2975284,30.732285 99.1753284,33.4938852 L99.1750212,33.5386771 C99.1747443,33.5824501 99.1743275,33.6567606 99.1739747,33.7547314 L99.1736862,34.4099172 C99.1755325,35.0934392 99.1849545,36.0060246 99.2185284,36.5880855 C99.2565284,37.2494856 98.9881284,37.3600856 98.4117283,37.3478856 C96.8793282,37.3156856 95.344528,37.3000856 93.8133279,37.3536856 C93.1221278,37.3778856 92.9983278,37.1266855 93.0020429,36.4996855 C93.0273278,32.2670851 93.0151278,28.0342847 93.0151278,23.8016844 C93.0151278,19.568884 93.0273278,15.3360836 93.0020429,11.1034832 C92.9983278,10.4780832 93.1199278,10.2240831 93.8125279,10.2484831 Z M88.6386351,11.1764632 C88.6175413,13.2917634 88.6124943,15.4072136 88.6127209,17.5226888 L88.6184474,23.8690644 L88.6184474,23.8690644 C88.6184474,28.0666647 88.6020474,32.2646651 88.6344474,36.4618655 C88.6398474,37.1608655 88.4514474,37.3746656 87.7488473,37.3528656 C86.1512472,37.3028656 84.5504471,37.3082656 82.9524469,37.3516656 C82.3438469,37.3680656 81.9996468,37.1636655 81.6738468,36.6528655 C78.8104465,32.1626651 75.9252463,27.6860647 73.021246,23.2218643 C72.784046,22.8574643 72.406846,22.4858642 72.0132459,22.3444642 C71.3990459,22.1238642 70.9322458,22.7056643 70.9292458,23.6256643 C70.9198458,26.5238646 70.9262458,29.4224649 70.9264458,32.3206651 C70.9266458,33.7532652 70.9012458,35.1864654 70.9388458,36.6178655 C70.9540458,37.1986655 70.7538458,37.3592656 70.1948458,37.3480656 C68.6298456,37.3162656 67.0628455,37.3104656 65.4980454,37.3500656 C64.8926453,37.3654656 64.7952453,37.1250655 64.7962453,36.5902655 C64.8104453,28.0620647 64.8106453,19.533464 64.7956388,11.0050632 C64.7946453,10.4602632 64.9094453,10.2424631 65.5050454,10.2524631 C67.5366455,10.2866631 69.5706457,10.2262631 71.6000459,10.3006631 C71.9808459,10.3146631 72.473646,10.7008632 72.697246,11.0534632 C75.7634463,15.8866636 78.7898465,20.7450641 81.8336468,25.5926645 C81.9788468,25.8238645 82.1934468,26.0116645 82.3756469,26.2196646 L82.4215432,25.7044645 C82.4276913,25.6185978 82.4317802,25.5327312 82.4318469,25.4468645 C82.4352469,20.6826641 82.4474469,15.9186636 82.4196469,11.1550632 C82.4156469,10.4790632 82.5628469,10.2212631 83.2884469,10.2486631 C84.7520471,10.3046631 86.2208472,10.3034631 87.6846473,10.2492631 C88.4122474,10.2224631 88.6462474,10.4010632 88.6386351,11.1764632 Z"/>
      <path fill="#599EB6" d="M123.302971,11.9588433 C125.455971,15.3644436 127.789371,18.6562439 130.058971,21.9878442 C131.596371,24.2450444 132.527171,24.2452444 134.047171,22.0062442 L137.701647,16.6362187 C138.918122,14.8450935 140.129272,13.0504434 141.324172,11.2450432 C141.826372,10.4860432 142.360572,10.1950431 143.264172,10.2268431 C145.086297,10.2913431 145.201762,10.2533627 145.209078,11.8351736 L145.209572,12.1736433 L145.209572,12.1736433 C145.209572,20.205044 145.194372,28.2366447 145.230824,36.2678455 C145.234772,37.1542455 145.008372,37.4024456 144.123372,37.3760456 C142.202687,37.3189304 142.085047,37.3567681 142.077842,35.6553606 L142.077372,35.3038454 L142.077372,35.3038454 C142.077372,29.8050449 142.081372,24.3064444 142.071572,18.8074439 C142.070572,18.2376439 142.285372,17.4006438 141.494372,17.3304438 C141.080772,17.2936438 140.484572,17.8566438 140.178572,18.2940439 C138.919072,20.095844 137.672372,21.9064942 136.429472,23.7197693 L132.703171,29.1612448 L132.703171,29.1612448 C132.081571,30.0666449 132.033171,30.0650449 131.419371,29.1804448 C128.970371,25.6494445 126.525171,22.1162442 124.078371,18.5836439 C123.945571,18.3920439 123.852571,18.1472438 123.675171,18.0174438 C123.304771,17.7476438 122.89017,17.5382438 122.49357,17.3038438 C122.33097,17.7074438 122.02957,18.1100438 122.02637,18.5150439 C121.99277,22.9138443 122.00537,27.3128447 122.00557,31.7118451 C122.00557,33.3448452 121.98577,34.9782454 122.01637,36.6106455 C122.02657,37.1740455 121.84337,37.3478456 121.27777,37.3676456 C119.043603,37.4462011 118.982299,37.4663423 118.980618,35.3613278 L118.98037,23.7782443 L118.98037,23.7782443 C118.98037,19.579244 118.99997,15.3800436 118.962437,11.1812432 C118.95577,10.4180432 119.20857,10.3004431 119.91937,10.2144431 C121.50257,10.0224431 122.44417,10.6002432 123.302971,11.9588433 Z M149.882233,10.2353631 C153.445433,10.3153631 157.017634,10.2145631 160.571434,10.4291632 C166.655034,10.7969632 171.610435,15.1051636 172.840235,20.8595641 C174.468435,28.4787648 169.723035,35.6261654 161.952034,36.9437655 C159.381434,37.3795656 156.712634,37.2543656 154.087433,37.3457656 C152.722433,37.3935656 151.353033,37.3179656 149.988433,37.3687656 C149.242633,37.3963656 149.017833,37.1535655 149.023524,36.4033655 C149.056633,32.1705651 149.039633,27.9371647 149.039633,23.7039643 C149.039633,19.537564 149.049033,15.3709636 149.029433,11.2045632 C149.026433,10.5709632 149.115633,10.2181631 149.882233,10.2353631 Z M157.802834,13.1737634 C156.882034,13.1737634 156.215433,13.1597634 155.549833,13.1765634 C153.620833,13.2251634 152.216433,14.6299635 152.212633,16.5445637 C152.202433,21.3737641 152.202433,26.2029646 152.212833,31.032165 C152.216633,32.8255652 153.586433,34.3671653 155.356433,34.3993653 C157.247834,34.4335653 159.161434,34.4343653 161.031834,34.1911653 C165.610234,33.5959652 168.968435,30.1939649 169.764035,25.5535645 C170.524635,21.1163641 168.340435,16.5819637 164.422234,14.5229635 C162.270834,13.3925634 159.950034,13.0603634 157.802834,13.1737634 Z M179.793416,10.3057231 C179.902016,10.3335231 180.002816,10.6045232 180.011416,10.7721232 C180.039016,11.3027232 180.021616,11.8353233 180.020416,12.3671233 C180.019016,12.9653234 180.038016,13.5645234 180.005616,14.1611235 C179.997616,14.3083235 179.822816,14.4463235 179.724616,14.5887235 L179.666617,14.5194976 L179.666617,14.5194976 L179.538366,14.3816235 C179.477466,14.3125235 179.428716,14.2428235 179.425016,14.1709235 C179.391216,13.5077234 179.410816,12.8419234 179.403816,12.1773233 C179.402416,12.0529233 179.366616,11.9289233 179.346816,11.8045233 C179.226216,11.8897233 179.104416,11.9733233 178.986016,12.0615233 C178.960616,12.0801233 178.948415,12.1157233 178.928415,12.1423233 C177.916815,13.4859234 177.918415,13.4845234 176.883615,12.2237233 C176.788015,12.1071233 176.653415,12.0221233 176.537015,11.9225233 C176.493815,12.0663233 176.417015,12.2089233 176.413415,12.3537233 C176.398615,12.9515234 176.432615,13.5519234 176.387215,14.1467235 C176.375015,14.3047235 176.144415,14.4463235 176.014215,14.5953235 L175.95702,14.5231772 L175.95702,14.5231772 L175.82984,14.3792735 C175.769515,14.3072735 175.721615,14.2350235 175.720015,14.1617235 C175.694815,13.0321234 175.695015,11.9017233 175.716615,10.7721232 C175.720015,10.6075232 175.878615,10.3103231 175.966015,10.3101231 C176.163815,10.3095231 176.427015,10.4035232 176.547415,10.5529232 C176.879815,10.9651232 177.169615,11.4153232 177.444415,11.8697233 C177.742615,12.3629233 177.987415,12.4963233 178.329215,11.8941233 C178.607015,11.4047232 178.940815,10.9429232 179.289016,10.4997232 C179.389816,10.3713232 179.646816,10.2683231 179.793416,10.3057231 Z M173.353035,10.2486631 L173.353035,10.2528631 C173.784235,10.2528631 174.217835,10.2272631 174.645835,10.2660631 C174.805435,10.2806631 174.951435,10.4452632 175.103835,10.5412632 C174.949835,10.6684632 174.777435,10.9222632 174.645235,10.9026632 C173.643235,10.7542632 173.582835,11.3302632 173.629235,12.0844633 C173.671835,12.7786634 173.652435,13.4782634 173.620235,14.1736635 C173.613635,14.3170635 173.430435,14.4524635 173.328435,14.5914635 C173.218835,14.4548635 173.020435,14.3220635 173.014235,14.1806635 C172.981035,13.4188634 172.973235,12.6542634 173.000435,11.8922633 C173.023435,11.2622632 172.885835,10.8608632 172.131035,10.9068632 C171.940635,10.9182632 171.735835,10.6924632 171.537835,10.5758632 C171.744635,10.4666632 171.943035,10.2916631 172.160435,10.2632631 C172.551835,10.2120631 172.954835,10.2486631 173.353035,10.2486631 Z M57.2463246,1.11059609e-06 C59.4705248,-0.00159777741 61.229125,1.72340238 61.201725,3.87980257 C61.175125,5.97240276 59.4117248,7.64360291 57.2361246,7.63841501 C55.0227244,7.63340291 53.3851243,6.00860276 53.3849242,3.81740256 C53.3845243,1.64300237 55.0451244,0.00140222286 57.2463246,1.11059609e-06 Z"/>
    </g>
  </g>
</svg>
