<svg xmlns="http://www.w3.org/2000/svg" xmlns:xlink="http://www.w3.org/1999/xlink" width="103px" height="103px" viewBox="0 0 103 103"><title>logo-teams</title><desc>Created with Sketch.</desc><defs><linearGradient x1="50%" y1="107.645031%" x2="50%" y2="-10.1705435%" id="linearGradient-1"><stop stop-color="#9B63EB" stop-opacity="0.102468297" offset="0%"></stop><stop stop-color="#9B63EB" stop-opacity="0.193953804" offset="100%"></stop></linearGradient></defs><g id="Current" stroke="none" stroke-width="1" fill="none" fill-rule="evenodd"><g id="www-teams" transform="translate(-649.000000, -123.000000)" stroke="#FFFFFF" stroke-width="2"><g id="hero" transform="translate(-287.000000, -68.000000)"><g id="logo-teams" transform="translate(937.000000, 192.000000)"><path d="M100.956368,50.478184 L100.956368,50.478184 C100.956368,68.512744 91.335108,85.175724 75.716468,94.193004 L75.716468,94.193004 C60.099848,103.210284 40.857328,103.210284 25.238688,94.193004 L25.238688,94.193004 C9.622068,85.175724 0.000808,68.512744 0.000808,50.478184 L0.000808,50.478184 C0.000808,32.443624 9.622068,15.780644 25.238688,6.763364 L25.238688,6.763364 C40.857328,-2.253916 60.099848,-2.253916 75.716468,6.763364 L75.716468,6.763364 C91.335108,15.780644 100.956368,32.443624 100.956368,50.478184 L100.956368,50.478184 Z" id="Stroke-1" fill="url(#linearGradient-1)"></path><g id="Group-18" transform="translate(14.000000, 21.000000)" stroke-linecap="round" stroke-linejoin="round"><path d="M62,50.0000007 L44.954508,38.558892 C43.053688,37.058032 42.241648,35.078432 43.490008,33.220032 C45.930168,29.586052 49.228828,23.572512 49.228828,17.625632 C49.228828,0.340492 36.464448,0.906092 36.464448,0.906092 C36.464448,0.906092 23.698048,0.340492 23.698048,17.625632 C23.698048,23.572512 26.998728,29.586052 29.438888,33.220032 C30.687248,35.078432 29.937828,37.227712 27.970348,38.558892 L12,50.0000007" id="Stroke-3"></path><path d="M50.0845,11.902062 C52.31256,10.570882 54.48204,10.667842 54.48204,10.667842 C54.48204,10.667842 63.64476,10.261822 63.64476,22.666642 C63.64476,26.934902 61.2753,31.251642 59.52396,33.859462 C58.6291,35.194682 59.16642,36.735942 60.5784,37.691402 L70.9511,44.684642 C72.72264,45.876442 73.26602,48.264082 72.153,50.084102 C68.56952,55.950182 63.5377,60.939582 57.38074,64.494782 L57.38074,64.494782 C44.44466,71.962722 28.50686,71.962722 15.56876,64.494782 L15.56876,64.494782 C9.41584,60.941602 4.38604,55.956242 0.80458,50.096222 C-0.31046,48.274182 0.23292,45.888562 2.00244,44.694742 L12.37312,37.699482 C13.7851,36.744022 14.32242,35.202762 13.42554,33.867542 C11.6742,31.259722 9.30676,26.942982 9.30676,22.674722 C9.30676,10.269902 18.46746,10.675922 18.46746,10.675922 C18.46746,10.675922 20.88742,10.568862 23.2387,12.146482" id="Stroke-5"></path></g></g></g></g></g></svg>